<svg viewBox="0 0 120 118" fill="none" xmlns="http://www.w3.org/2000/svg">
<path d="M53.7864 1.29972C30.864 3.81578 11.4372 19.0847 4.1964 40.291C3.0732 43.5162 2.2488 46.9116 1.65 50.6253C1.0512 54.4856 1.0512 62.8157 1.65 66.7489C3.5976 79.0369 8.94 89.8349 17.3556 98.3857C22.3992 103.54 27.2688 107.009 33.8352 110.21C51.1884 118.687 71.514 118.296 88.4688 109.134C93.612 106.35 97.3572 103.54 101.827 99.1418C110.816 90.2998 116.384 79.4032 118.332 66.871C118.956 62.8404 118.956 54.3377 118.332 50.381C116.708 40.0714 112.439 30.471 105.947 22.5306C103.675 19.7457 98.6304 14.9578 95.7096 12.8315C87.744 6.99284 79.3548 3.4753 69.3672 1.74C65.9208 1.15296 57.3312 0.908754 53.7864 1.29972ZM67.9932 8.97117C86.6208 12.0743 101.726 24.2154 108.269 41.3406C110.466 47.1065 111.29 51.8216 111.29 58.6865C111.29 64.281 111.016 66.6022 109.817 71.1459C109.117 73.7359 106.945 79.6967 106.67 79.6967C106.52 79.6967 17.3292 31.3985 17.0796 31.1789C16.7304 30.8619 22.2228 24.3141 24.7704 21.9929C32.8608 14.6878 42.5736 10.1934 53.6352 8.72696C56.8572 8.28668 64.722 8.40878 67.9932 8.97117ZM58.2804 61.9117C89.3928 78.7926 102.925 86.268 102.826 86.4876C102.502 87.367 98.556 92.0328 96.3336 94.2318C78.2304 112.066 49.716 113.924 28.9164 98.6546C26.2944 96.7244 21.9252 92.547 19.8024 89.9582C15.3576 84.4858 12.1368 78.2314 10.314 71.538C8.9904 66.675 8.7156 64.4278 8.7156 58.6865C8.7156 53.092 8.9904 50.7708 10.1892 46.2271C10.914 43.4669 13.086 37.6763 13.3608 37.6763C13.4844 37.6763 33.6852 48.5964 58.2804 61.9117Z" fill="#E3E3E7"/>
<path d="M50.19 28.4903C47.8428 29.3204 46.0704 31.1038 45.396 33.3522C45.1464 34.1341 45.0216 35.624 45.0216 37.4568C45.0216 39.1427 44.922 40.3638 44.772 40.4131C44.6472 40.4377 47.4936 42.0991 51.1392 44.0774L57.7812 47.6936H59.8536C64.0488 47.6936 68.0184 49.2328 71.0652 52.067C72.0636 52.9957 73.2876 54.4363 73.7868 55.2922L74.736 56.8561L86.022 62.9883L97.332 69.1429L97.4076 57.8318C97.458 46.9844 97.4328 46.4467 96.9576 45.1775C96.3084 43.4669 95.0844 42.1237 93.4368 41.2197L92.088 40.4871L83.5488 40.4143L74.9844 40.3415V37.3123C74.9844 34.8691 74.8848 34.0143 74.4852 32.9635C73.836 31.2529 72.612 29.9097 70.9644 29.0057L69.6156 28.2731L60.3768 28.2238C53.0364 28.1733 50.9388 28.2226 50.19 28.4903Z" fill="#E3E3E7"/>
<path d="M22.5984 65.9423C22.6728 83.4338 22.6728 83.752 23.1972 84.8509C23.9712 86.4629 25.1448 87.6359 26.7432 88.4178L28.1664 89.1023H60.0024H91.8384L93.2868 88.4178C94.086 88.0268 94.6848 87.5865 94.6356 87.441C94.5852 87.2461 74.0112 75.8856 72.0624 75.0062C71.5884 74.7867 71.3628 74.8841 70.3896 75.7154C65.7456 79.7214 58.6044 80.528 52.7604 77.7184C48.4908 75.6661 45.12 71.3666 44.1216 66.7489C43.7724 65.1123 43.7472 61.4233 44.0712 60.2022C44.1456 59.9334 35.6316 55.1455 24.5952 49.2328L22.5228 48.1339L22.5984 65.9423Z" fill="#E3E3E7"/>
<path d="M51.3636 64.8434C51.6132 66.4073 52.8864 68.7766 54.0348 69.8027C55.758 71.3173 57.5304 71.9771 59.8776 72.0018C61.776 72.0018 64.2468 71.3912 64.2468 70.9263C64.2468 70.7549 51.6624 63.8172 51.3372 63.8172C51.264 63.8172 51.264 64.281 51.3636 64.8434Z" fill="#E3E3E7"/>
</svg>
